<?xml version="1.0" encoding="UTF-8" standalone="no"?>
<!-- Created with Inkscape (http://www.inkscape.org/) -->

<svg
   xmlns:dc="http://purl.org/dc/elements/1.1/"
   xmlns:cc="http://creativecommons.org/ns#"
   xmlns:rdf="http://www.w3.org/1999/02/22-rdf-syntax-ns#"
   xmlns:svg="http://www.w3.org/2000/svg"
   xmlns="http://www.w3.org/2000/svg"
   xmlns:sodipodi="http://sodipodi.sourceforge.net/DTD/sodipodi-0.dtd"
   xmlns:inkscape="http://www.inkscape.org/namespaces/inkscape"
   width="52.657436mm"
   height="57.122051mm"
   viewBox="0 0 52.657436 57.122051"
   version="1.1"
   id="svg992"
   inkscape:version="0.92.3 (3ce5693, 2018-03-11)"
   sodipodi:docname="video.svg">
  <defs
     id="defs986" />
  <sodipodi:namedview
     id="base"
     pagecolor="#ffffff"
     bordercolor="#666666"
     borderopacity="1.0"
     inkscape:pageopacity="0.0"
     inkscape:pageshadow="2"
     inkscape:zoom="1.4"
     inkscape:cx="65.901986"
     inkscape:cy="100.77654"
     inkscape:document-units="mm"
     inkscape:current-layer="XMLID_822_"
     showgrid="false"
     inkscape:window-width="1366"
     inkscape:window-height="658"
     inkscape:window-x="0"
     inkscape:window-y="27"
     inkscape:window-maximized="1"
     fit-margin-top="0"
     fit-margin-left="0"
     fit-margin-right="0"
     fit-margin-bottom="0" />
  <metadata
     id="metadata989">
    <rdf:RDF>
      <cc:Work
         rdf:about="">
        <dc:format>image/svg+xml</dc:format>
        <dc:type
           rdf:resource="http://purl.org/dc/dcmitype/StillImage" />
        <dc:title></dc:title>
      </cc:Work>
    </rdf:RDF>
  </metadata>
  <g
     inkscape:label="Layer 1"
     inkscape:groupmode="layer"
     id="layer1"
     transform="translate(-34.147473,-71.135403)">
    <path
       style="clip-rule:evenodd;opacity:0.98999999;fill:#d40000;fill-rule:evenodd;stroke-width:0.02540057;image-rendering:optimizeQuality;shape-rendering:geometricPrecision;text-rendering:geometricPrecision"
       inkscape:connector-curvature="0"
       id="path1432"
       d="m 54.342981,127.64381 c -4.927712,-3.25127 -9.880822,-6.52794 -14.808532,-9.77922 -2.032046,-2.36225 -1.524034,-4.8007 -0.254006,-7.26456 1.447832,-2.18445 1.32083,-4.5213 0.533412,-6.88355 -0.482611,-2.13365 -0.43181,-4.2673 0.203205,-6.37554 1.549434,-4.2927 4.495899,-7.56937 7.620169,-10.69364 2.590858,-2.38766 4.927712,-5.05472 7.747175,-7.18836 0.762016,-0.48262 1.600236,-0.83822 2.463855,-1.04143 6.019933,-0.3048 11.277852,2.59086 16.916779,3.93709 0.812816,0.43181 1.447832,1.06682 1.955842,1.85424 1.346229,2.89567 1.143027,6.22314 2.590859,9.09341 1.092223,2.59085 2.08285,5.207111 2.311452,8.05197 0.152403,2.51466 -0.355608,4.87692 -1.447834,7.13757 -7.924977,16.40876 -11.735062,9.65221 -18.263007,17.24698 -0.787419,0.91442 -5.842131,2.10825 -7.594771,1.90504 z"
       class="fil13" />
    <path
       style="clip-rule:evenodd;opacity:0.98999999;fill:#aa0000;fill-rule:evenodd;stroke-width:0.02540057;image-rendering:optimizeQuality;shape-rendering:geometricPrecision;text-rendering:geometricPrecision"
       inkscape:connector-curvature="0"
       id="path1434"
       d="m 54.342981,127.64381 c 4.064091,-1.19382 9.0426,-1.29542 7.086758,-8.10278 -1.219228,-4.19109 2.743261,-2.71786 4.699103,-3.60688 6.629551,-3.02267 14.122718,-5.46112 13.309902,-15.11334 5.461119,1.01603 3.479877,5.30872 3.759282,8.5854 0.508013,5.61352 -3.657682,8.00117 -7.416964,10.66824 -4.673706,9.52521 -13.030494,8.58539 -21.438081,7.56936 z"
       class="fil14" />
    <path
       style="clip-rule:evenodd;opacity:0.98999999;fill:#aa0000;fill-rule:evenodd;stroke-width:0.02540057;image-rendering:optimizeQuality;shape-rendering:geometricPrecision;text-rendering:geometricPrecision"
       inkscape:connector-curvature="0"
       id="path1436"
       d="m 75.781062,120.07445 c 0.863616,-3.81009 5.816727,-5.23252 5.588121,-9.67762 1.676443,-5.91833 1.625638,-11.557261 -1.447831,-17.17079 -2.921066,-5.35952 -3.50528,-11.27785 -2.667058,-17.32318 1.397029,-0.86362 2.76866,-0.88902 4.089489,0.1524 4.343501,5.30872 5.435725,11.04925 5.461125,16.94218 v 0.1524 c -0.0254,4.902311 -0.787416,9.88082 -1.092224,14.83394 -0.431808,6.55334 -0.431808,13.10669 -9.906222,12.06527 z"
       class="fil15" />
    <path
       style="clip-rule:evenodd;opacity:0.98999999;fill:#ff0000;fill-rule:evenodd;stroke-width:0.02540057;image-rendering:optimizeQuality;shape-rendering:geometricPrecision;text-rendering:geometricPrecision"
       inkscape:connector-curvature="0"
       id="path1438"
       d="m 41.515693,97.03613 c -0.0254,2.54005 -0.0508,5.05471 -0.0762,7.59477 1.143026,1.95584 -0.45721,3.81008 -0.228605,5.74053 -1.244628,2.33685 -2.006645,4.8007 -1.676437,7.49316 -5.664327,-2.31145 -3.505279,-7.23916 -3.810086,-11.35405 -0.254005,-6.04533 1.930444,-11.48106 4.01329,-16.96758 0.558813,-0.0508 1.117625,-0.0508 1.676438,-0.0508 1.981244,2.48926 1.092224,5.00391 0.0762,7.51857 z"
       class="fil15" />
    <path
       style="clip-rule:evenodd;opacity:0.98999999;fill:#ff2a2a;fill-rule:evenodd;stroke-width:0.02540057;image-rendering:optimizeQuality;shape-rendering:geometricPrecision;text-rendering:geometricPrecision"
       inkscape:connector-curvature="0"
       id="path1440"
       d="m 43.420736,83.90403 c 2.057446,-11.45565 12.344677,-16.35796 20.701461,-9.88081 0.152405,0.4318 0.279408,0.83821 0.431811,1.27002 -5.257916,4.80071 -14.071915,1.62564 -18.542415,8.25519 -0.812818,0.45721 -1.676438,0.55881 -2.590857,0.3556 z"
       class="fil16" />
    <path
       style="clip-rule:evenodd;opacity:0.98999999;fill:#ff2a2a;fill-rule:evenodd;stroke-width:0.02540057;image-rendering:optimizeQuality;shape-rendering:geometricPrecision;text-rendering:geometricPrecision"
       inkscape:connector-curvature="0"
       id="path1442"
       d="m 39.737653,89.54296 c 0.711216,6.14694 -1.574835,11.55726 -4.01329,16.96758 -2.590858,-6.57875 -2.463855,-12.52248 4.01329,-16.96758 z"
       class="fil16" />
    <path
       style="clip-rule:evenodd;opacity:0.98999999;fill:#ff2a2a;fill-rule:evenodd;stroke-width:0.02540057;image-rendering:optimizeQuality;shape-rendering:geometricPrecision;text-rendering:geometricPrecision"
       inkscape:connector-curvature="0"
       id="path1444"
       d="m 43.420736,83.90403 c 0.584213,-0.0762 1.168425,-0.1524 1.778039,-0.2286 0.381008,0 0.736616,0.0254 1.117625,0.0254 1.473233,0.83822 3.886287,1.04142 2.66706,3.78468 -2.489255,3.17508 -4.978511,6.35015 -7.493167,9.52522 -0.0254,-2.51466 -0.0508,-5.02931 -0.0762,-7.51857 0.660415,-1.85424 1.320829,-3.73388 2.006645,-5.58813 z"
       class="fil15" />
    <path
       style="clip-rule:evenodd;opacity:0.98999999;fill:#ff2a2a;fill-rule:evenodd;stroke-width:0.02540057;image-rendering:optimizeQuality;shape-rendering:geometricPrecision;text-rendering:geometricPrecision"
       inkscape:connector-curvature="0"
       id="path1446"
       d="m 81.343783,76.05526 c -1.270029,0.0254 -2.565458,0.0508 -3.835484,0.0508 -4.800709,3.12427 -8.941001,0.91442 -13.055894,-1.57484 0,0 -0.330208,-0.4826 -0.330208,-0.4826 6.17234,-2.99727 11.98907,-2.87027 17.246986,2.00664 z"
       class="fil16" />
    <path
       style="clip-rule:evenodd;opacity:0.98999999;fill:#d40000;fill-rule:evenodd;stroke-width:0.02540057;image-rendering:optimizeQuality;shape-rendering:geometricPrecision;text-rendering:geometricPrecision"
       inkscape:connector-curvature="0"
       id="path1448"
       d="m 64.452405,74.53122 c 4.521303,-0.91441 8.661596,1.32083 13.055894,1.57484 0.685816,11.50646 11.735062,21.819091 3.860884,34.29077 -0.50801,-3.22587 1.24463,-6.88356 -1.930439,-9.57602 -0.635016,-2.540049 -1.270032,-5.08011 -1.930445,-7.59477 -2.23525,-2.84486 0.45721,-6.68035 -1.905043,-9.52521 v 0 C 69.430916,81.56718 63.690389,77.29989 56.578231,79.89074 v 0 c -3.606881,1.72724 -6.883556,4.4197 -11.277854,3.86089 l -0.152404,-0.0762 c 0.965223,-5.89293 5.461123,-6.95976 10.312633,-7.54397 3.022667,-0.38101 6.324741,0.88902 8.966399,-1.62564 z"
       class="fil17" />
    <path
       style="clip-rule:evenodd;opacity:0.98999999;fill:#aa0000;fill-rule:evenodd;stroke-width:0.02540057;image-rendering:optimizeQuality;shape-rendering:geometricPrecision;text-rendering:geometricPrecision"
       inkscape:connector-curvature="0"
       id="path1450"
       d="m 56.603631,79.89074 c 7.467766,-4.41969 13.513101,-1.62563 19.025025,3.81009 -6.781953,0.93982 -12.395477,-3.98789 -19.025025,-3.81009 z"
       class="fil15" />
    <path
       style="clip-rule:evenodd;opacity:0.98999999;fill:#ff2a2a;fill-rule:evenodd;stroke-width:0.02540057;image-rendering:optimizeQuality;shape-rendering:geometricPrecision;text-rendering:geometricPrecision"
       inkscape:connector-curvature="0"
       id="path1452"
       d="m 45.325777,83.75163 c 3.251274,-2.79406 6.807354,-4.6229 11.277854,-3.86089 -1.828841,3.25128 -4.368898,5.76593 -7.620171,7.59478 -1.219228,-1.24463 -2.438455,-2.48926 -3.657683,-3.73389 z"
       class="fil15" />
    <path
       style="clip-rule:evenodd;opacity:0.98999999;fill:#d40000;fill-rule:evenodd;stroke-width:0.02540057;image-rendering:optimizeQuality;shape-rendering:geometricPrecision;text-rendering:geometricPrecision"
       inkscape:connector-curvature="0"
       id="path1454"
       d="m 75.628656,83.70083 c 3.200472,2.66706 1.447832,6.29934 1.905043,9.52521 -3.149672,-2.66706 -1.422432,-6.29934 -1.905043,-9.52521 z"
       class="fil14" />
    <g
       transform="matrix(0.09449404,0,0,0.08353535,49.356918,87.825897)"
       id="XMLID_822_"
       style="fill:#f9f9f9;fill-opacity:1">
      <path
         inkscape:connector-curvature="0"
         id="XMLID_823_"
         d="M 283.40223,71.891956 C 271.49537,57.941968 249.51184,52.251648 207.52822,52.251648 H 55.127911 c -42.944485,0 -65.300432,6.05737 -77.162598,20.909251 -11.56529,14.480638 -11.56529,35.816711 -11.56529,65.346381 v 56.28341 c 0,57.20838 13.722144,86.2546 88.727888,86.2546 H 207.52928 c 36.40794,0 56.58256,-5.02124 69.63435,-17.33209 13.38484,-12.62442 19.09566,-33.23688 19.09566,-68.92251 v -56.28341 c 0,-31.14154 -0.89488,-52.603462 -12.85706,-66.615324 z M 178.17074,174.41943 108.96626,210.06625 c -1.54715,0.79703 -3.23901,1.19239 -4.92874,1.19239 -1.91318,0 -3.82211,-0.50758 -5.5129,-1.51644 -3.18368,-1.90132 -5.12772,-5.30229 -5.12772,-8.97069 v -71.06503 c 0,-3.66211 1.93872,-7.05994 5.11601,-8.96231 3.17836,-1.90236 7.13135,-2.0324 10.42888,-0.34398 l 69.20447,35.41716 c 3.52099,1.80169 5.73211,5.3841 5.73743,9.29265 0.004,3.9117 -2.19729,7.49935 -5.71295,9.30943 z"
         style="fill:#f9f9f9;fill-opacity:1;stroke-width:1.05636001" />
    </g>
    <g
       transform="matrix(0.16460253,0,0,0.2671821,39.687501,64.803291)"
       id="g1760"
       style="fill:#f9f9f9;fill-opacity:1" />
    <g
       transform="matrix(0.16460253,0,0,0.2671821,39.687501,64.803291)"
       id="g1762"
       style="fill:#f9f9f9;fill-opacity:1" />
    <g
       transform="matrix(0.16460253,0,0,0.2671821,39.687501,64.803291)"
       id="g1764"
       style="fill:#f9f9f9;fill-opacity:1" />
    <g
       transform="matrix(0.16460253,0,0,0.2671821,39.687501,64.803291)"
       id="g1766"
       style="fill:#f9f9f9;fill-opacity:1" />
    <g
       transform="matrix(0.16460253,0,0,0.2671821,39.687501,64.803291)"
       id="g1768"
       style="fill:#f9f9f9;fill-opacity:1" />
    <g
       transform="matrix(0.16460253,0,0,0.2671821,39.687501,64.803291)"
       id="g1770"
       style="fill:#f9f9f9;fill-opacity:1" />
    <g
       transform="matrix(0.16460253,0,0,0.2671821,39.687501,64.803291)"
       id="g1772"
       style="fill:#f9f9f9;fill-opacity:1" />
    <g
       transform="matrix(0.16460253,0,0,0.2671821,39.687501,64.803291)"
       id="g1774"
       style="fill:#f9f9f9;fill-opacity:1" />
    <g
       transform="matrix(0.16460253,0,0,0.2671821,39.687501,64.803291)"
       id="g1776"
       style="fill:#f9f9f9;fill-opacity:1" />
    <g
       transform="matrix(0.16460253,0,0,0.2671821,39.687501,64.803291)"
       id="g1778"
       style="fill:#f9f9f9;fill-opacity:1" />
    <g
       transform="matrix(0.16460253,0,0,0.2671821,39.687501,64.803291)"
       id="g1780"
       style="fill:#f9f9f9;fill-opacity:1" />
    <g
       transform="matrix(0.16460253,0,0,0.2671821,39.687501,64.803291)"
       id="g1782"
       style="fill:#f9f9f9;fill-opacity:1" />
    <g
       transform="matrix(0.16460253,0,0,0.2671821,39.687501,64.803291)"
       id="g1784"
       style="fill:#f9f9f9;fill-opacity:1" />
    <g
       transform="matrix(0.16460253,0,0,0.2671821,39.687501,64.803291)"
       id="g1786"
       style="fill:#f9f9f9;fill-opacity:1" />
    <g
       transform="matrix(0.16460253,0,0,0.2671821,39.687501,64.803291)"
       id="g1788"
       style="fill:#f9f9f9;fill-opacity:1" />
  </g>
</svg>
